<svg width="60" height="60" viewBox="0 0 60 60" fill="none" xmlns="http://www.w3.org/2000/svg">
<path d="M18.4377 41.9526L21.5627 38.0476L11.5027 30.0001L21.5627 21.9526L18.4377 18.0476L5.9377 28.0476C5.64481 28.2818 5.40837 28.5789 5.24588 28.9169C5.08339 29.2549 4.99902 29.6251 4.99902 30.0001C4.99902 30.3751 5.08339 30.7453 5.24588 31.0833C5.40837 31.4213 5.64481 31.7184 5.9377 31.9526L18.4377 41.9526ZM41.5627 18.0476L38.4377 21.9526L48.4977 30.0001L38.4377 38.0476L41.5627 41.9526L54.0627 31.9526C54.3556 31.7184 54.592 31.4213 54.7545 31.0833C54.917 30.7453 55.0014 30.3751 55.0014 30.0001C55.0014 29.6251 54.917 29.2549 54.7545 28.9169C54.592 28.5789 54.3556 28.2818 54.0627 28.0476L41.5627 18.0476ZM37.4402 8.04008L27.4402 53.0401L22.5577 51.9551L32.5577 6.95508L37.4402 8.04008Z" fill="#5F6C7B"/>
</svg>
