<svg width="61" height="60" viewBox="0 0 61 60" fill="none" xmlns="http://www.w3.org/2000/svg">
<g clip-path="url(#clip0_25_850)">
<path d="M20.5 29.0166V44.9999H36.4833L33.15 41.6666H23.8333V32.3499L20.5 29.0166Z" fill="#5D7488"/>
<path d="M63.6164 53.8164L58.833 48.9664V53.3331H12.1664V46.4164H15.4997V43.7498H12.1664V32.6664H15.4997V29.9998H12.1664V19.3331H15.4997V16.6664H12.1664V7.34976L38.733 33.7664V29.0664L11.683 2.14976C11.4499 1.91472 11.1521 1.75441 10.8275 1.6893C10.5029 1.62418 10.1663 1.6572 9.86057 1.78415C9.55483 1.91109 9.29382 2.12621 9.11082 2.40208C8.92781 2.67794 8.83111 3.00206 8.83304 3.3331V54.9998C8.83304 55.4418 9.00863 55.8657 9.32119 56.1783C9.63375 56.4908 10.0577 56.6664 10.4997 56.6664H62.433C62.7641 56.6684 63.0882 56.5717 63.3641 56.3887C63.6399 56.2057 63.855 55.9446 63.982 55.6389C64.1089 55.3332 64.1419 54.9965 64.0768 54.672C64.0117 54.3474 63.8514 54.0495 63.6164 53.8164Z" fill="#5D7488"/>
<path d="M45.5003 50.0002H52.167C53.051 50.0002 53.8989 49.649 54.524 49.0239C55.1491 48.3988 55.5003 47.5509 55.5003 46.6669V14.5002L51.667 7.45019C51.3705 6.93656 50.9424 6.51132 50.4268 6.21835C49.9111 5.92537 49.3267 5.77527 48.7337 5.78353C48.1272 5.78834 47.5336 5.9585 47.0167 6.27568C46.4998 6.59286 46.0793 7.04504 45.8003 7.58353L42.167 14.5335V46.6669C42.167 47.5509 42.5182 48.3988 43.1433 49.0239C43.7684 49.649 44.6163 50.0002 45.5003 50.0002ZM45.5003 15.3335L48.7337 9.05019L52.167 15.3502V40.0002H45.5003V15.3335ZM45.5003 42.7169H52.167V46.7835H45.5003V42.7169Z" fill="#5D7488"/>
</g>
<defs>
<clipPath id="clip0_25_850">
<rect width="60" height="60" fill="white" transform="translate(0.5)"/>
</clipPath>
</defs>
</svg>
