<svg width="22" height="23" viewBox="0 0 22 23" fill="none" xmlns="http://www.w3.org/2000/svg">
<g clip-path="url(#clip0_25_1112)">
<path fill-rule="evenodd" clip-rule="evenodd" d="M4.40026 1.9668C4.01128 1.9668 3.63822 2.12132 3.36317 2.39637C3.08812 2.67143 2.93359 3.04448 2.93359 3.43346V19.5668C2.93359 19.9558 3.08812 20.3288 3.36317 20.6039C3.63822 20.8789 4.01128 21.0335 4.40026 21.0335H15.4003C15.5948 21.0335 15.7813 20.9562 15.9188 20.8187C16.0563 20.6811 16.1336 20.4946 16.1336 20.3001C16.1336 20.1056 16.0563 19.9191 15.9188 19.7816C15.7813 19.6441 15.5948 19.5668 15.4003 19.5668H4.40026V3.43346H15.4003C15.5948 3.43346 15.7813 3.3562 15.9188 3.21868C16.0563 3.08115 16.1336 2.89462 16.1336 2.70013C16.1336 2.50564 16.0563 2.31911 15.9188 2.18159C15.7813 2.04406 15.5948 1.9668 15.4003 1.9668H4.40026ZM18.4861 7.68093C18.3484 7.54323 18.1617 7.46587 17.9669 7.46587C17.7722 7.46587 17.5854 7.54323 17.4477 7.68093C17.31 7.81863 17.2327 8.00539 17.2327 8.20013C17.2327 8.39487 17.31 8.58163 17.4477 8.71933L19.4967 10.7668H9.53359C9.3391 10.7668 9.15258 10.8441 9.01505 10.9816C8.87752 11.1191 8.80026 11.3056 8.80026 11.5001C8.80026 11.6946 8.87752 11.8811 9.01505 12.0187C9.15258 12.1562 9.3391 12.2335 9.53359 12.2335H19.4967L17.4477 14.2809C17.31 14.4186 17.2327 14.6054 17.2327 14.8001C17.2327 14.9949 17.31 15.1816 17.4477 15.3193C17.5854 15.457 17.7722 15.5344 17.9669 15.5344C18.1617 15.5344 18.3484 15.457 18.4861 15.3193L21.7861 12.0193C21.8544 11.9512 21.9086 11.8703 21.9456 11.7812C21.9825 11.6921 22.0016 11.5966 22.0016 11.5001C22.0016 11.4037 21.9825 11.3082 21.9456 11.2191C21.9086 11.13 21.8544 11.0491 21.7861 10.9809L18.4861 7.68093Z" fill="white"/>
</g>
<defs>
<clipPath id="clip0_25_1112">
<rect width="22" height="22" fill="white" transform="translate(0 0.5)"/>
</clipPath>
</defs>
</svg>
