<svg width="61" height="60" viewBox="0 0 61 60" fill="none" xmlns="http://www.w3.org/2000/svg">
<g clip-path="url(#clip0_25_861)">
<path d="M10.5 15V40H23V30C23 28.6739 23.5268 27.4021 24.4645 26.4645C25.4021 25.5268 26.6739 25 28 25H40.5C41.8261 25 43.0979 25.5268 44.0355 26.4645C44.9732 27.4021 45.5 28.6739 45.5 30V40H50.5V15H10.5ZM0.5 50V45H10.5C9.17392 45 7.90215 44.4732 6.96447 43.5355C6.02678 42.5979 5.5 41.3261 5.5 40V15C5.5 13.6739 6.02678 12.4021 6.96447 11.4645C7.90215 10.5268 9.17392 10 10.5 10H50.5C51.8261 10 53.0979 10.5268 54.0355 11.4645C54.9732 12.4021 55.5 13.6739 55.5 15V40C55.5 41.3261 54.9732 42.5979 54.0355 43.5355C53.0979 44.4732 51.8261 45 50.5 45H60.5V50H45.5C45.5 51.3261 44.9732 52.5979 44.0355 53.5355C43.0979 54.4732 41.8261 55 40.5 55H28C26.6739 55 25.4021 54.4732 24.4645 53.5355C23.5268 52.5979 23 51.3261 23 50H0.5ZM29.25 50C28.9185 50 28.6005 50.1317 28.3661 50.3661C28.1317 50.6005 28 50.9185 28 51.25C28 51.5815 28.1317 51.8995 28.3661 52.1339C28.6005 52.3683 28.9185 52.5 29.25 52.5C29.5815 52.5 29.8995 52.3683 30.1339 52.1339C30.3683 51.8995 30.5 51.5815 30.5 51.25C30.5 50.9185 30.3683 50.6005 30.1339 50.3661C29.8995 50.1317 29.5815 50 29.25 50ZM39.25 50C38.9185 50 38.6005 50.1317 38.3661 50.3661C38.1317 50.6005 38 50.9185 38 51.25C38 51.5815 38.1317 51.8995 38.3661 52.1339C38.6005 52.3683 38.9185 52.5 39.25 52.5C39.5815 52.5 39.8995 52.3683 40.1339 52.1339C40.3683 51.8995 40.5 51.5815 40.5 51.25C40.5 50.9185 40.3683 50.6005 40.1339 50.3661C39.8995 50.1317 39.5815 50 39.25 50ZM33 50V52.5H35.5V50H33ZM28 30V47.5H40.5V30H28Z" fill="#5C7B93"/>
</g>
<defs>
<clipPath id="clip0_25_861">
<rect width="60" height="60" fill="white" transform="translate(0.5)"/>
</clipPath>
</defs>
</svg>
