<svg width="23" height="23" viewBox="0 0 23 23" fill="none" xmlns="http://www.w3.org/2000/svg">
<path d="M10.3283 11.5C10.3283 11.8108 10.4517 12.1089 10.6715 12.3286C10.8913 12.5484 11.1893 12.6719 11.5001 12.6719C11.8109 12.6719 12.109 12.5484 12.3288 12.3286C12.5486 12.1089 12.672 11.8108 12.672 11.5C12.672 11.1892 12.5486 10.8911 12.3288 10.6714C12.109 10.4516 11.8109 10.3281 11.5001 10.3281C11.1893 10.3281 10.8913 10.4516 10.6715 10.6714C10.4517 10.8911 10.3283 11.1892 10.3283 11.5ZM15.2111 11.5C15.2111 11.8108 15.3345 12.1089 15.5543 12.3286C15.7741 12.5484 16.0722 12.6719 16.383 12.6719C16.6938 12.6719 16.9918 12.5484 17.2116 12.3286C17.4314 12.1089 17.5548 11.8108 17.5548 11.5C17.5548 11.1892 17.4314 10.8911 17.2116 10.6714C16.9918 10.4516 16.6938 10.3281 16.383 10.3281C16.0722 10.3281 15.7741 10.4516 15.5543 10.6714C15.3345 10.8911 15.2111 11.1892 15.2111 11.5ZM5.44545 11.5C5.44545 11.8108 5.56892 12.1089 5.78869 12.3286C6.00846 12.5484 6.30653 12.6719 6.61733 12.6719C6.92813 12.6719 7.2262 12.5484 7.44597 12.3286C7.66574 12.1089 7.7892 11.8108 7.7892 11.5C7.7892 11.1892 7.66574 10.8911 7.44597 10.6714C7.2262 10.4516 6.92813 10.3281 6.61733 10.3281C6.30653 10.3281 6.00846 10.4516 5.78869 10.6714C5.56892 10.8911 5.44545 11.1892 5.44545 11.5ZM21.588 7.26172C21.0363 5.95068 20.2453 4.77393 19.237 3.76318C18.2357 2.75829 17.0471 1.95953 15.7384 1.41211C14.3956 0.848145 12.9699 0.5625 11.5001 0.5625H11.4513C9.97182 0.569824 8.53871 0.862793 7.19106 1.43896C5.89359 1.992 4.71611 2.79218 3.72426 3.79492C2.72572 4.80322 1.94203 5.9751 1.40004 7.28125C0.838518 8.63379 0.555314 10.0718 0.562639 11.5513C0.570923 13.2468 0.972042 14.9173 1.73451 16.4316V20.1426C1.73451 20.4404 1.85283 20.7261 2.06345 20.9367C2.27406 21.1473 2.55971 21.2656 2.85756 21.2656H6.57094C8.08533 22.0281 9.75583 22.4292 11.4513 22.4375H11.5026C12.965 22.4375 14.3834 22.1543 15.7189 21.6001C17.021 21.0592 18.2051 20.2698 19.2052 19.2759C20.2135 18.2773 21.007 17.1104 21.5612 15.8091C22.1374 14.4614 22.4303 13.0283 22.4376 11.5488C22.445 10.062 22.1569 8.61914 21.588 7.26172ZM17.8991 17.9551C16.1876 19.6494 13.9171 20.582 11.5001 20.582H11.4586C9.98647 20.5747 8.52407 20.2085 7.23256 19.52L7.02748 19.4102H3.58998V15.9727L3.48012 15.7676C2.79164 14.4761 2.42543 13.0137 2.41811 11.5415C2.40834 9.10742 3.33852 6.82227 5.04506 5.10107C6.74916 3.37988 9.027 2.42773 11.4611 2.41797H11.5026C12.7233 2.41797 13.9074 2.65478 15.0231 3.12353C16.112 3.58008 17.0885 4.23682 17.9284 5.07666C18.7658 5.91406 19.4249 6.89307 19.8815 7.98193C20.3551 9.10986 20.5919 10.3062 20.5871 11.5415C20.5724 13.9731 19.6178 16.251 17.8991 17.9551Z" fill="#5F6C7B"/>
</svg>
