<svg width="256" height="265" viewBox="0 0 256 265" fill="none" xmlns="http://www.w3.org/2000/svg">
<path fill-rule="evenodd" clip-rule="evenodd" d="M117.029 1.05427C178.797 4.06393 232.27 44.0472 250.086 103.211C266.783 158.66 239.972 217.028 191.727 249.117C148.988 277.545 96.5874 261.603 53.2083 234.16C-4.97999 197.349 -8.38968 188.764 9.78124 122.395C29.2235 51.3811 43.4242 -2.53211 117.029 1.05427Z" fill="#E2EBFD"/>
<path d="M95.0019 21.6102C94.8126 21.1714 94.5799 20.7439 94.3026 20.3332C91.919 16.8032 87.1478 15.8584 83.6458 18.2231C81.5031 19.6699 80.332 22.0205 80.2918 24.4357C78.5602 24.2473 76.7597 24.6453 75.2083 25.6928C71.7399 28.0348 70.8173 32.7445 73.1155 36.264L73.1147 36.2646C69.2237 38.8919 68.2163 44.2014 70.8648 48.1237C73.5132 52.046 78.8145 53.0957 82.7055 50.4684L103.439 36.4685C107.33 33.8412 108.338 28.5317 105.689 24.6094C103.294 21.0628 98.7308 19.865 95.0019 21.6102Z" fill="#7877FD" fill-opacity="0.1"/>
<path d="M21.8945 93.0351L54.8646 73.9999L54.1518 104.853L21.1817 123.889L21.8945 93.0351Z" fill="#4FB8F9" fill-opacity="0.1"/>
<g clip-path="url(#clip0_112_6)">
<path d="M39.7703 149.879L36.112 151.451C35.5882 151.066 35.0118 150.758 34.4005 150.537C34.1503 149.233 33.9009 147.928 33.6517 146.624C33.5834 146.267 33.0935 146.218 32.9584 146.557L31.4865 150.247C30.8343 150.343 30.1999 150.536 29.604 150.818C28.4914 150.063 27.3791 149.308 26.2644 148.55C25.9691 148.35 25.5878 148.662 25.7287 148.992C26.2612 150.229 26.7909 151.464 27.3229 152.701C26.9406 153.224 26.6353 153.799 26.4165 154.409C25.1036 154.661 23.7884 154.91 22.4755 155.162C22.1193 155.23 22.0708 155.721 22.4093 155.856L26.1338 157.341C26.2332 157.987 26.4261 158.616 26.7063 159.206L24.4788 162.486C24.2783 162.782 24.5907 163.164 24.9201 163.022L28.5618 161.457C29.0986 161.851 29.6904 162.164 30.3182 162.386C30.5659 163.683 30.8134 164.979 31.0618 166.275C31.1296 166.633 31.6197 166.681 31.755 166.343C32.2437 165.117 32.7327 163.891 33.222 162.666C33.8689 162.567 34.4979 162.374 35.0893 162.095C36.1825 162.838 37.2759 163.58 38.3686 164.322C38.6651 164.523 39.0463 164.21 38.9043 163.881C38.3837 162.669 37.8636 161.457 37.3423 160.245C37.7354 159.713 38.0483 159.127 38.2711 158.504L42.1317 157.766C42.1741 157.766 42.216 157.758 42.2549 157.741C42.2937 157.724 42.3286 157.699 42.3573 157.668C42.4212 157.609 42.4556 157.528 42.4646 157.445C42.4769 157.355 42.4593 157.262 42.4036 157.186C42.3809 157.15 42.351 157.119 42.3157 157.095C42.2804 157.071 42.2405 157.054 42.1985 157.047C40.9834 156.562 39.7665 156.077 38.5508 155.591C38.4498 154.94 38.2551 154.307 37.9725 153.712C38.7182 152.613 39.4654 151.513 40.2117 150.415C40.413 150.119 40.0999 149.737 39.7705 149.878" fill="#FBB041" fill-opacity="0.1"/>
<path d="M35.9205 160.894C38.3633 158.882 38.7123 155.27 36.7 152.827C34.6877 150.384 31.076 150.035 28.6332 152.048C26.1903 154.06 25.8413 157.672 27.8536 160.115C29.8659 162.557 33.4776 162.906 35.9205 160.894Z" fill="#F9EC21" fill-opacity="0.1"/>
</g>
<path d="M33.0337 191.3L57.807 195.065L42.1601 214.637L33.0337 191.3Z" fill="#7877FD" fill-opacity="0.1"/>
<path d="M206.034 171.3L230.807 175.065L215.16 194.637L206.034 171.3Z" fill="#7877FD" fill-opacity="0.1"/>
<path d="M206.271 60.2586L204.603 67.4882L210.963 71.3085L203.572 71.9563L201.904 79.1859L199.004 72.3567L191.613 73.0046L197.212 68.1361L194.312 61.3069L200.672 65.1272L206.271 60.2586Z" fill="#EF918E" fill-opacity="0.1"/>
<path d="M216.271 104.259L214.603 111.488L220.963 115.308L213.572 115.956L211.904 123.186L209.004 116.357L201.613 117.005L207.212 112.136L204.312 105.307L210.672 109.127L216.271 104.259Z" fill="#EF918E" fill-opacity="0.1"/>
<defs>
<clipPath id="clip0_112_6">
<rect width="20.4885" height="20.4885" fill="white" transform="translate(18 155.027) rotate(-39.4803)"/>
</clipPath>
</defs>
</svg>
