<svg width="288" height="288" viewBox="0 0 288 288" fill="none" xmlns="http://www.w3.org/2000/svg">
<g clip-path="url(#clip0_84_111)">
<path d="M263.696 180.95L152.513 265.967C151.823 266.494 150.952 266.726 150.09 266.612C149.229 266.497 148.449 266.044 147.921 265.354L27.3786 107.712C26.8508 107.022 26.6189 106.15 26.7337 105.289C26.8486 104.428 27.3009 103.647 27.991 103.119L91.8532 54.2868L179.95 66.0358L264.308 176.358C264.836 177.048 265.068 177.92 264.953 178.781C264.838 179.642 264.386 180.422 263.696 180.95Z" fill="#F9E7C0" fill-opacity="0.1"/>
<path d="M91.8529 54.2869L179.95 66.0359L140.638 96.0958C134.777 100.577 126.394 99.4591 121.912 93.5985L91.8525 54.2871L91.8529 54.2869Z" fill="#EAC083" fill-opacity="0.1"/>
<path d="M97.2415 96.7389L62.6921 123.157C60.737 124.652 57.9402 124.279 56.4452 122.324C54.9502 120.369 55.3232 117.572 57.2783 116.077L91.8277 89.6589C93.7828 88.1639 96.5796 88.5369 98.0746 90.492C99.5696 92.4471 99.1966 95.2439 97.2415 96.7389ZM115.793 113.664C114.298 111.709 111.501 111.336 109.546 112.831L74.9967 139.249C73.0416 140.744 72.6686 143.541 74.1636 145.496C75.6586 147.451 78.4554 147.824 80.4105 146.329L114.96 119.911C116.915 118.416 117.288 115.619 115.793 113.664ZM133.512 136.836C132.017 134.881 129.22 134.508 127.265 136.003L92.7153 162.421C90.7602 163.916 90.3872 166.713 91.8822 168.668C93.3772 170.623 96.174 170.996 98.1291 169.501L132.679 143.083C134.633 141.587 135.007 138.791 133.512 136.836ZM181.14 137.137C179.645 135.182 176.848 134.809 174.893 136.303L110.434 185.593C108.479 187.088 108.106 189.884 109.601 191.84C111.096 193.795 113.892 194.168 115.848 192.673L180.307 143.384C182.262 141.889 182.635 139.092 181.14 137.137ZM175.346 104.846C173.852 102.891 171.055 102.518 169.1 104.013L145.25 122.25C143.295 123.745 142.922 126.542 144.417 128.497C145.912 130.452 148.708 130.825 150.664 129.33L174.513 111.093C176.468 109.598 176.841 106.801 175.346 104.846ZM186.032 170.116C184.538 168.161 181.741 167.788 179.785 169.283L128.152 208.765C126.197 210.26 125.824 213.056 127.319 215.012C128.814 216.967 131.611 217.34 133.566 215.845L185.199 176.363C187.154 174.868 187.527 172.071 186.032 170.116ZM224.81 177.185C223.315 175.23 220.518 174.857 218.563 176.352L145.871 231.936C143.916 233.431 143.543 236.228 145.038 238.183C146.533 240.138 149.329 240.511 151.285 239.016L223.976 183.432C225.931 181.937 226.305 179.14 224.81 177.185Z" fill="#597B91" fill-opacity="0.1"/>
</g>
<defs>
<clipPath id="clip0_84_111">
<rect width="205" height="205" fill="white" transform="translate(0 124.522) rotate(-37.4036)"/>
</clipPath>
</defs>
</svg>
