<svg width="201" height="201" viewBox="0 0 201 201" fill="none" xmlns="http://www.w3.org/2000/svg">
<g clip-path="url(#clip0_84_109)">
<path d="M128.827 26.9009L23.1589 83.9268C20.9109 85.14 20.0749 87.9363 21.288 90.1843L65.1541 171.468C66.3673 173.716 69.1636 174.552 71.4116 173.338L177.08 116.312C179.328 115.099 180.164 112.303 178.951 110.055L135.085 28.7717C133.871 26.5238 131.075 25.6877 128.827 26.9009ZM126.029 46.2698L102.786 99.0742C102.213 100.384 100.829 101.131 99.4202 100.891L42.5107 91.3423C42.2966 91.3072 42.0989 91.206 41.9453 91.053C41.7916 90.8999 41.6897 90.7026 41.6539 90.4887C41.618 90.2748 41.6499 90.055 41.7452 89.8602C41.8406 89.6654 41.9944 89.5053 42.1853 89.4023L124.586 44.9331C124.777 44.83 124.995 44.7893 125.211 44.8166C125.426 44.8438 125.627 44.9377 125.786 45.0851C125.945 45.2325 126.054 45.426 126.098 45.6385C126.141 45.8509 126.117 46.0717 126.029 46.2698V46.2698Z" fill="#4FB8F9" fill-opacity="0.1"/>
</g>
<defs>
<clipPath id="clip0_84_109">
<rect width="147.783" height="147.783" fill="white" transform="translate(0 70.1855) rotate(-28.3544)"/>
</clipPath>
</defs>
</svg>
