<svg width="23" height="23" viewBox="0 0 23 23" fill="none" xmlns="http://www.w3.org/2000/svg">
<g clip-path="url(#clip0_84_228)">
<path fill-rule="evenodd" clip-rule="evenodd" d="M11.342 0.87793C5.28433 0.87793 0.37793 5.78433 0.37793 11.842C0.37793 16.6935 3.51638 20.7913 7.87458 22.2441C8.42279 22.34 8.62836 22.0111 8.62836 21.7233C8.62836 21.4629 8.61466 20.5995 8.61466 19.6812C5.85994 20.1883 5.14728 19.0097 4.928 18.393C4.80466 18.0777 4.27016 17.1047 3.80419 16.8443C3.42045 16.6387 2.87225 16.1316 3.79048 16.1179C4.6539 16.1042 5.27063 16.9128 5.4762 17.2417C6.46297 18.9001 8.03904 18.4341 8.66948 18.1463C8.76541 17.4336 9.05322 16.9539 9.36843 16.6798C6.92894 16.4057 4.3798 15.4601 4.3798 11.2663C4.3798 10.074 4.80466 9.08725 5.50361 8.31976C5.39397 8.04566 5.01023 6.92185 5.61325 5.4143C5.61325 5.4143 6.53149 5.12649 8.62836 6.53811C9.50548 6.29142 10.4374 6.16807 11.3694 6.16807C12.3013 6.16807 13.2333 6.29142 14.1104 6.53811C16.2072 5.11279 17.1255 5.4143 17.1255 5.4143C17.7285 6.92185 17.3448 8.04566 17.2351 8.31976C17.9341 9.08725 18.3589 10.0603 18.3589 11.2663C18.3589 15.4738 15.7961 16.4057 13.3566 16.6798C13.754 17.0225 14.0967 17.6803 14.0967 18.7082C14.0967 20.1746 14.083 21.3533 14.083 21.7233C14.083 22.0111 14.2885 22.3537 14.8367 22.2441C17.0133 21.5092 18.9046 20.1104 20.2444 18.2444C21.5843 16.3784 22.3053 14.1392 22.306 11.842C22.306 5.78433 17.3996 0.87793 11.342 0.87793Z" fill="#5F6C7B"/>
</g>
<defs>
<clipPath id="clip0_84_228">
<rect width="21.9281" height="21.9281" fill="white" transform="translate(0.37793 0.87793)"/>
</clipPath>
</defs>
</svg>
