<svg width="22" height="23" viewBox="0 0 22 23" fill="none" xmlns="http://www.w3.org/2000/svg">
<g clip-path="url(#clip0_84_216)">
<path fill-rule="evenodd" clip-rule="evenodd" d="M6.83168 1.85181C7.90341 1.80247 8.24512 1.7915 10.9752 1.7915C13.7052 1.7915 14.0469 1.80338 15.1177 1.85181C16.1886 1.90023 16.9195 2.07109 17.5591 2.31869C18.2288 2.57178 18.8364 2.9674 19.3389 3.47905C19.8505 3.98065 20.2453 4.58733 20.4974 5.25796C20.7459 5.89753 20.9159 6.62847 20.9652 7.69746C21.0146 8.77102 21.0255 9.11273 21.0255 11.8419C21.0255 14.5719 21.0136 14.9136 20.9652 15.9854C20.9168 17.0543 20.7459 17.7853 20.4974 18.4248C20.2452 19.0956 19.8499 19.7033 19.3389 20.2056C18.8364 20.7172 18.2288 21.1119 17.5591 21.3641C16.9195 21.6126 16.1886 21.7826 15.1196 21.8319C14.0469 21.8813 13.7052 21.8922 10.9752 21.8922C8.24512 21.8922 7.90341 21.8803 6.83168 21.8319C5.76268 21.7835 5.03175 21.6126 4.39218 21.3641C3.72147 21.1119 3.11379 20.7166 2.61144 20.2056C2.10013 19.7037 1.70445 19.0963 1.45199 18.4258C1.20439 17.7862 1.03444 17.0553 0.985107 15.9863C0.935769 14.9127 0.924805 14.571 0.924805 11.8419C0.924805 9.11182 0.936682 8.77011 0.985107 7.69929C1.03353 6.62847 1.20439 5.89753 1.45199 5.25796C1.70482 4.58741 2.10081 3.98003 2.61235 3.47814C3.11399 2.96694 3.72106 2.57127 4.39127 2.31869C5.03083 2.07109 5.76177 1.90114 6.83076 1.85181H6.83168ZM15.0364 3.66087C13.9766 3.61245 13.6586 3.6024 10.9752 3.6024C8.29172 3.6024 7.97376 3.61245 6.91391 3.66087C5.93354 3.70564 5.40178 3.86919 5.04728 4.00715C4.57857 4.18989 4.24325 4.40642 3.89149 4.75819C3.55804 5.08259 3.30142 5.4775 3.14045 5.91398C3.00249 6.26848 2.83894 6.80024 2.79417 7.7806C2.74575 8.84046 2.7357 9.15842 2.7357 11.8419C2.7357 14.5253 2.74575 14.8433 2.79417 15.9031C2.83894 16.8835 3.00249 17.4152 3.14045 17.7697C3.30126 18.2056 3.558 18.6012 3.89149 18.9255C4.21584 19.259 4.61146 19.5158 5.04728 19.6766C5.40178 19.8145 5.93354 19.9781 6.91391 20.0229C7.97376 20.0713 8.2908 20.0813 10.9752 20.0813C13.6595 20.0813 13.9766 20.0713 15.0364 20.0229C16.0168 19.9781 16.5485 19.8145 16.903 19.6766C17.3718 19.4938 17.7071 19.2773 18.0588 18.9255C18.3923 18.6012 18.6491 18.2056 18.8099 17.7697C18.9478 17.4152 19.1114 16.8835 19.1562 15.9031C19.2046 14.8433 19.2146 14.5253 19.2146 11.8419C19.2146 9.15842 19.2046 8.84046 19.1562 7.7806C19.1114 6.80024 18.9478 6.26848 18.8099 5.91398C18.6271 5.44527 18.4106 5.10995 18.0588 4.75819C17.7344 4.42476 17.3395 4.16815 16.903 4.00715C16.5485 3.86919 16.0168 3.70564 15.0364 3.66087ZM9.69146 14.9401C10.4084 15.2385 11.2067 15.2788 11.95 15.0541C12.6933 14.8293 13.3355 14.3535 13.767 13.7078C14.1984 13.0621 14.3923 12.2867 14.3156 11.514C14.2388 10.7412 13.8962 10.0191 13.3461 9.47089C12.9955 9.12048 12.5715 8.85217 12.1048 8.68527C11.638 8.51838 11.14 8.45705 10.6467 8.50571C10.1534 8.55436 9.67698 8.71179 9.25181 8.96667C8.82663 9.22154 8.46325 9.56751 8.18784 9.97967C7.91242 10.3918 7.73181 10.8599 7.65902 11.3503C7.58622 11.8406 7.62305 12.341 7.76685 12.8154C7.91065 13.2898 8.15785 13.7264 8.49064 14.0938C8.82344 14.4612 9.23355 14.7502 9.69146 14.9401ZM7.32232 8.18901C7.80201 7.70932 8.3715 7.3288 8.99826 7.06919C9.62501 6.80958 10.2968 6.67595 10.9752 6.67595C11.6536 6.67595 12.3253 6.80958 12.9521 7.06919C13.5788 7.3288 14.1483 7.70932 14.628 8.18901C15.1077 8.66871 15.4882 9.2382 15.7478 9.86496C16.0075 10.4917 16.1411 11.1635 16.1411 11.8419C16.1411 12.5203 16.0075 13.192 15.7478 13.8188C15.4882 14.4455 15.1077 15.015 14.628 15.4947C13.6592 16.4635 12.3452 17.0078 10.9752 17.0078C9.60508 17.0078 8.29111 16.4635 7.32232 15.4947C6.35352 14.5259 5.80926 13.2119 5.80926 11.8419C5.80926 10.4718 6.35352 9.15781 7.32232 8.18901ZM17.2868 7.44529C17.4057 7.33315 17.5008 7.19831 17.5667 7.04873C17.6325 6.89916 17.6676 6.7379 17.67 6.5745C17.6724 6.4111 17.642 6.24888 17.5805 6.09745C17.5191 5.94602 17.4279 5.80846 17.3123 5.69291C17.1968 5.57735 17.0592 5.48616 16.9078 5.42473C16.7564 5.36329 16.5941 5.33286 16.4307 5.33525C16.2673 5.33763 16.1061 5.37277 15.9565 5.43859C15.8069 5.50442 15.6721 5.59958 15.56 5.71845C15.3419 5.94964 15.2225 6.25672 15.2271 6.5745C15.2317 6.89228 15.36 7.19575 15.5848 7.42048C15.8095 7.64521 16.113 7.7735 16.4307 7.77814C16.7485 7.78277 17.0556 7.66337 17.2868 7.44529Z" fill="#5F6C7B"/>
</g>
<defs>
<clipPath id="clip0_84_216">
<rect width="21.9281" height="21.9281" fill="white" transform="translate(0.0107422 0.87793)"/>
</clipPath>
</defs>
</svg>
