<svg width="382" height="274" viewBox="0 0 382 274" fill="none" xmlns="http://www.w3.org/2000/svg">
<circle cx="310.5" cy="71.5" r="71.5" fill="#FD3159" fill-opacity="0.08"/>
<path d="M43.833 92.875H23.1663C21.7416 92.875 20.583 94.0336 20.583 95.4583V113.542C20.583 114.966 21.7416 116.125 23.1663 116.125H43.833C45.2577 116.125 46.4163 114.966 46.4163 113.542V95.4583C46.4163 94.0336 45.2577 92.875 43.833 92.875ZM23.1663 113.542V98.0417H43.833L43.8356 113.542H23.1663Z" fill="#EF918E" fill-opacity="0.08"/>
<path d="M30.0031 101.003L25.2148 105.792L30.0031 110.58L31.8295 108.753L28.8677 105.792L31.8295 102.83L30.0031 101.003ZM36.9961 101.003L35.1697 102.83L38.1315 105.792L35.1697 108.753L36.9961 110.58L41.7843 105.792L36.9961 101.003Z" fill="#EF918E" fill-opacity="0.08"/>
<path fill-rule="evenodd" clip-rule="evenodd" d="M270.165 189.517C269.86 187.325 269.398 185.169 268.759 183.059C266.517 175.657 260.411 172.565 254.455 173.447C248.501 174.328 242.819 179.167 241.382 186.811C240.559 191.182 240.813 194.607 241.725 197.246C242.632 199.871 244.22 201.75 246.199 202.95C251.716 206.29 260.358 204.298 263.964 200.797C265.631 199.176 267.231 197.369 268.763 195.408C268.939 204.617 266.393 214.306 262.521 223.598C254.108 243.794 239.356 262.1 231.034 269.861C230.587 270.278 230.431 271.215 230.683 271.954C230.935 272.694 231.502 272.956 231.949 272.539C240.435 264.624 255.471 245.939 264.051 225.343C268.483 214.705 271.177 203.546 270.52 193.057C281.643 177.479 289.342 153.657 295.96 133.56C296.207 132.818 296.039 131.882 295.588 131.475C295.138 131.072 294.573 131.344 294.327 132.09C287.979 151.365 280.672 174.206 270.165 189.517ZM268.547 191.779C268.295 189.282 267.821 186.825 267.095 184.433C265.156 178.026 259.776 175.743 254.62 176.507C251.46 176.977 248.361 178.619 246.117 181.338C244.706 183.046 243.637 185.176 243.158 187.726C242.528 191.073 242.64 193.703 243.339 195.719C244.04 197.751 245.304 199.134 246.838 200.06C251.866 203.107 259.74 201.332 263.022 198.145C264.957 196.266 266.795 194.128 268.547 191.779Z" fill="#FD3159" fill-opacity="0.05"/>
<path fill-rule="evenodd" clip-rule="evenodd" d="M46.7429 241.804C37.7469 250.214 23.6369 249.739 15.2272 240.743C6.81744 231.747 7.2926 217.637 16.2886 209.227C25.2845 200.817 39.3946 201.293 47.8043 210.289C56.2141 219.285 55.7388 233.395 46.7429 241.804ZM30.2302 218.578C31.6629 220.11 34.0669 220.191 35.5996 218.759C37.1321 217.326 37.2131 214.922 35.7805 213.389C34.3476 211.857 31.9436 211.776 30.4111 213.208C28.8784 214.641 28.7974 217.045 30.2302 218.578ZM38.3513 227.265C39.7841 228.798 42.1881 228.879 43.7208 227.446C45.2533 226.013 45.3343 223.609 43.9015 222.077C42.4688 220.544 40.0648 220.463 38.5322 221.896C36.9996 223.329 36.9186 225.733 38.3513 227.265ZM25.9577 230.938C22.4692 227.206 22.6664 221.353 26.3979 217.865L23.6909 214.969C18.36 219.952 18.0784 228.314 23.0618 233.645C28.0454 238.976 36.407 239.257 41.7379 234.274L39.0307 231.378C35.2992 234.866 29.4462 234.669 25.9577 230.938Z" fill="#DC5B27" fill-opacity="0.08"/>
<path fill-rule="evenodd" clip-rule="evenodd" d="M74.9757 68.5261C80.775 59.1412 77.9101 46.8344 68.5557 41.007C77.931 46.8474 90.2747 43.9677 96.1259 34.5751C90.3264 43.9599 93.1914 56.2668 102.546 62.0942C93.1704 56.2537 80.8269 59.1335 74.9757 68.5261Z" fill="#CFAD36" fill-opacity="0.08"/>
</svg>
