<svg width="1539" height="505" viewBox="0 0 1539 505" fill="none" xmlns="http://www.w3.org/2000/svg">
<g clip-path="url(#clip0_146_20)">
<path d="M128.827 330.901L23.1589 387.927C20.9109 389.14 20.0749 391.936 21.288 394.184L65.1541 475.468C66.3673 477.716 69.1636 478.552 71.4116 477.338L177.08 420.312C179.328 419.099 180.164 416.303 178.951 414.055L135.085 332.772C133.871 330.524 131.075 329.688 128.827 330.901ZM126.029 350.27L102.786 403.074C102.213 404.384 100.829 405.131 99.4202 404.891L42.5107 395.342C42.2966 395.307 42.0989 395.206 41.9453 395.053C41.7916 394.9 41.6897 394.703 41.6539 394.489C41.618 394.275 41.6499 394.055 41.7452 393.86C41.8406 393.665 41.9944 393.505 42.1853 393.402L124.586 348.933C124.777 348.83 124.995 348.789 125.211 348.817C125.426 348.844 125.627 348.938 125.786 349.085C125.945 349.233 126.054 349.426 126.098 349.638C126.141 349.851 126.117 350.072 126.029 350.27V350.27Z" fill="#4FB8F9" fill-opacity="0.1"/>
</g>
<g clip-path="url(#clip1_146_20)">
<path d="M1514.7 180.95L1403.51 265.967C1402.82 266.494 1401.95 266.726 1401.09 266.612C1400.23 266.497 1399.45 266.044 1398.92 265.354L1278.38 107.712C1277.85 107.022 1277.62 106.15 1277.73 105.289C1277.85 104.428 1278.3 103.647 1278.99 103.119L1342.85 54.2868L1430.95 66.0358L1515.31 176.358C1515.84 177.048 1516.07 177.92 1515.95 178.781C1515.84 179.642 1515.39 180.422 1514.7 180.95Z" fill="#F9E7C0" fill-opacity="0.1"/>
<path d="M1342.85 54.2869L1430.95 66.0359L1391.64 96.0958C1385.78 100.577 1377.39 99.4591 1372.91 93.5985L1342.85 54.2871L1342.85 54.2869Z" fill="#EAC083" fill-opacity="0.1"/>
<path d="M1348.24 96.7389L1313.69 123.157C1311.74 124.652 1308.94 124.279 1307.45 122.324C1305.95 120.369 1306.32 117.572 1308.28 116.077L1342.83 89.6589C1344.78 88.1639 1347.58 88.5369 1349.07 90.492C1350.57 92.4471 1350.2 95.2439 1348.24 96.7389ZM1366.79 113.664C1365.3 111.709 1362.5 111.336 1360.55 112.831L1326 139.249C1324.04 140.744 1323.67 143.541 1325.16 145.496C1326.66 147.451 1329.46 147.824 1331.41 146.329L1365.96 119.911C1367.91 118.416 1368.29 115.619 1366.79 113.664ZM1384.51 136.836C1383.02 134.881 1380.22 134.508 1378.26 136.003L1343.72 162.421C1341.76 163.916 1341.39 166.713 1342.88 168.668C1344.38 170.623 1347.17 170.996 1349.13 169.501L1383.68 143.083C1385.63 141.587 1386.01 138.791 1384.51 136.836ZM1432.14 137.137C1430.65 135.182 1427.85 134.809 1425.89 136.303L1361.43 185.593C1359.48 187.088 1359.11 189.884 1360.6 191.84C1362.1 193.795 1364.89 194.168 1366.85 192.673L1431.31 143.384C1433.26 141.889 1433.63 139.092 1432.14 137.137ZM1426.35 104.846C1424.85 102.891 1422.05 102.518 1420.1 104.013L1396.25 122.25C1394.29 123.745 1393.92 126.542 1395.42 128.497C1396.91 130.452 1399.71 130.825 1401.66 129.33L1425.51 111.093C1427.47 109.598 1427.84 106.801 1426.35 104.846ZM1437.03 170.116C1435.54 168.161 1432.74 167.788 1430.79 169.283L1379.15 208.765C1377.2 210.26 1376.82 213.056 1378.32 215.012C1379.81 216.967 1382.61 217.34 1384.57 215.845L1436.2 176.363C1438.15 174.868 1438.53 172.071 1437.03 170.116ZM1475.81 177.185C1474.31 175.23 1471.52 174.857 1469.56 176.352L1396.87 231.936C1394.92 233.431 1394.54 236.228 1396.04 238.183C1397.53 240.138 1400.33 240.511 1402.28 239.016L1474.98 183.432C1476.93 181.937 1477.3 179.14 1475.81 177.185Z" fill="#597B91" fill-opacity="0.1"/>
</g>
<defs>
<clipPath id="clip0_146_20">
<rect width="147.783" height="147.783" fill="white" transform="translate(0 374.186) rotate(-28.3544)"/>
</clipPath>
<clipPath id="clip1_146_20">
<rect width="205" height="205" fill="white" transform="translate(1251 124.522) rotate(-37.4036)"/>
</clipPath>
</defs>
</svg>
