<svg width="22" height="23" viewBox="0 0 22 23" fill="none" xmlns="http://www.w3.org/2000/svg">
<path fill-rule="evenodd" clip-rule="evenodd" d="M8.67632 9.07244H12.0697V10.7627C12.5585 9.79058 13.8121 8.91711 15.6951 8.91711C19.305 8.91711 20.1621 10.8523 20.1621 14.4028V20.9785H16.5074V15.2114C16.5074 13.1894 16.0186 12.0492 14.7741 12.0492C13.0482 12.0492 12.331 13.2781 12.331 15.2105V20.9785H8.67632V9.07244ZM2.40946 20.8231H6.06414V8.91711H2.40946V20.8231ZM6.58767 5.03493C6.58781 5.34126 6.52705 5.64457 6.40895 5.92721C6.29084 6.20986 6.11773 6.46621 5.89968 6.68137C5.45783 7.1205 4.85975 7.3663 4.2368 7.36479C3.61495 7.36437 3.01825 7.11919 2.57575 6.68228C2.35849 6.46639 2.18597 6.20975 2.06806 5.92707C1.95016 5.64439 1.8892 5.34122 1.88867 5.03493C1.88867 4.41638 2.13536 3.82432 2.57666 3.38759C3.01878 2.95009 3.61573 2.7048 4.23772 2.70508C4.86084 2.70508 5.45838 2.95086 5.89968 3.38759C6.34007 3.82432 6.58767 4.41638 6.58767 5.03493Z" fill="#5F6C7B"/>
</svg>
