<svg width="1979" height="766" viewBox="0 0 1979 766" fill="none" xmlns="http://www.w3.org/2000/svg">
<path d="M1095.33 242.5H1028.67C1024.07 242.5 1020.33 246.237 1020.33 250.833V309.167C1020.33 313.762 1024.07 317.5 1028.67 317.5H1095.33C1099.93 317.5 1103.67 313.762 1103.67 309.167V250.833C1103.67 246.237 1099.93 242.5 1095.33 242.5ZM1028.67 309.167V259.167H1095.33L1095.34 309.167H1028.67Z" fill="#EF918E" fill-opacity="0.2"/>
<path d="M1050.45 265L1035 280.446L1050.45 295.892L1056.34 290L1046.78 280.446L1056.34 270.892L1050.45 265ZM1073 265L1067.11 270.892L1076.67 280.446L1067.11 290L1073 295.892L1088.45 280.446L1073 265Z" fill="#EF918E" fill-opacity="0.2"/>
<path d="M1467.87 301.034L1473.75 310.692L1489.69 300.985C1486.96 295.738 1487.3 292.504 1490.36 287.341L1467.87 301.034ZM1495.47 284.228C1491.27 286.786 1488.57 294.846 1491.6 299.822L1507.07 325.216L1520.92 316.778L1507.3 294.41C1505.2 290.965 1511.04 287.984 1511.04 287.984L1523.27 280.535L1517.39 270.878L1495.47 284.228Z" fill="#4FB8F9" fill-opacity="0.1"/>
<path fill-rule="evenodd" clip-rule="evenodd" d="M1443.57 307.452C1457.65 330.572 1489.61 336.982 1514.68 321.714C1539.75 306.446 1548.72 275.113 1534.64 251.992C1520.56 228.872 1488.61 222.462 1463.54 237.73C1438.46 252.998 1429.49 284.332 1443.57 307.452ZM1456.58 299.529C1446.45 282.893 1452.8 260.714 1470.84 249.728C1488.88 238.742 1511.5 243.279 1521.63 259.915C1531.76 276.551 1525.41 298.73 1507.37 309.716C1489.33 320.702 1466.71 316.165 1456.58 299.529Z" fill="#4FB8F9" fill-opacity="0.1"/>
<path d="M1463.51 293.873C1463.51 293.873 1466.86 258.64 1466.26 256.402C1465.62 254.06 1460.67 247.221 1457.87 242.631L1470.49 234.946L1477.47 247.462C1479.51 251.777 1480.01 255.239 1479.55 262.682L1477.31 285.47L1463.51 293.873ZM1499.6 271.898L1482.03 264.352C1482.35 261.683 1482.28 256.639 1481.34 252.322L1513.08 263.749L1499.6 271.898Z" fill="#4FB8F9" fill-opacity="0.1"/>
<path d="M1464.09 295.102L1466.97 299.82L1516.79 269.478L1513.92 264.76L1464.09 295.102Z" fill="#4FB8F9" fill-opacity="0.1"/>
<path d="M1479.89 283.927L1497.53 273.243L1481.85 266.266L1479.89 283.927Z" fill="#4FB8F9" fill-opacity="0.1"/>
<circle cx="1803.5" cy="175.5" r="175.5" fill="#FD3159" fill-opacity="0.1"/>
<path d="M967.543 471.949C964.945 471.949 962.511 472.957 960.668 474.799C958.834 476.642 957.818 479.076 957.818 481.674C957.818 484.273 958.834 486.707 960.668 488.549C962.511 490.383 964.945 491.4 967.543 491.4C970.142 491.4 972.576 490.383 974.418 488.549C976.252 486.707 977.269 484.273 977.269 481.674C977.269 479.076 976.252 476.642 974.418 474.799C973.518 473.893 972.447 473.174 971.267 472.684C970.087 472.195 968.821 471.945 967.543 471.949V471.949ZM1003.38 492.417L997.694 487.558C997.963 485.907 998.102 484.221 998.102 482.544C998.102 480.866 997.963 479.171 997.694 477.529L1003.38 472.67C1003.81 472.302 1004.11 471.813 1004.26 471.266C1004.4 470.72 1004.38 470.142 1004.19 469.611L1004.11 469.385C1002.54 465.01 1000.2 460.955 997.19 457.417L997.033 457.234C996.668 456.804 996.181 456.495 995.636 456.348C995.091 456.201 994.515 456.222 993.983 456.408L986.925 458.92C984.318 456.782 981.415 455.096 978.268 453.923L976.904 446.544C976.801 445.988 976.531 445.476 976.131 445.077C975.73 444.678 975.218 444.411 974.662 444.31L974.427 444.267C969.907 443.45 965.144 443.45 960.625 444.267L960.39 444.31C959.834 444.411 959.322 444.678 958.921 445.077C958.52 445.476 958.251 445.988 958.148 446.544L956.775 453.957C953.658 455.14 950.755 456.822 948.179 458.938L941.069 456.408C940.537 456.22 939.96 456.198 939.415 456.346C938.87 456.493 938.383 456.803 938.019 457.234L937.862 457.417C934.857 460.959 932.514 465.013 930.944 469.385L930.866 469.611C930.474 470.697 930.796 471.914 931.674 472.67L937.428 477.581C937.158 479.215 937.028 480.883 937.028 482.535C937.028 484.204 937.158 485.872 937.428 487.489L931.691 492.4C931.262 492.767 930.955 493.257 930.81 493.803C930.666 494.35 930.691 494.927 930.883 495.459L930.961 495.685C932.534 500.057 934.855 504.098 937.88 507.653L938.036 507.835C938.401 508.265 938.889 508.574 939.433 508.722C939.978 508.869 940.554 508.848 941.087 508.661L948.196 506.132C950.786 508.261 953.672 509.948 956.792 511.112L958.165 518.526C958.268 519.082 958.538 519.593 958.938 519.992C959.339 520.391 959.851 520.659 960.408 520.76L960.642 520.803C965.206 521.624 969.88 521.624 974.444 520.803L974.679 520.76C975.235 520.659 975.748 520.391 976.148 519.992C976.549 519.593 976.818 519.082 976.921 518.526L978.286 511.147C981.432 509.965 984.335 508.287 986.942 506.149L994 508.661C994.532 508.849 995.109 508.871 995.654 508.724C996.199 508.576 996.686 508.266 997.051 507.835L997.207 507.653C1000.23 504.081 1002.55 500.057 1004.13 495.685L1004.2 495.459C1004.58 494.381 1004.26 493.173 1003.38 492.417ZM967.543 496.954C959.104 496.954 952.264 490.114 952.264 481.674C952.264 473.235 959.104 466.395 967.543 466.395C975.983 466.395 982.823 473.235 982.823 481.674C982.823 490.114 975.983 496.954 967.543 496.954Z" fill="#4FB8F9" fill-opacity="0.1"/>
<path fill-rule="evenodd" clip-rule="evenodd" d="M997 647.5C997 663.793 983.793 677 967.5 677C951.208 677 938 663.793 938 647.5C938 631.208 951.208 618 967.5 618C983.793 618 997 631.208 997 647.5ZM959.633 642.474C962.409 642.474 964.659 640.224 964.659 637.448C964.659 634.673 962.409 632.422 959.633 632.422C956.858 632.422 954.607 634.673 954.607 637.448C954.607 640.224 956.858 642.474 959.633 642.474ZM975.367 642.474C978.142 642.474 980.393 640.224 980.393 637.448C980.393 634.673 978.142 632.422 975.367 632.422C972.591 632.422 970.341 634.673 970.341 637.448C970.341 640.224 972.591 642.474 975.367 642.474ZM967.718 657.77C960.96 657.77 955.482 652.292 955.482 645.533H950.237C950.237 655.188 958.064 663.015 967.718 663.015C977.373 663.015 985.2 655.188 985.2 645.533H979.955C979.955 652.292 974.477 657.77 967.718 657.77Z" fill="#DC5B27" fill-opacity="0.1"/>
<path fill-rule="evenodd" clip-rule="evenodd" d="M148 736.5C148 752.793 134.793 766 118.5 766C102.208 766 89 752.793 89 736.5C89 720.208 102.208 707 118.5 707C134.793 707 148 720.208 148 736.5ZM110.633 731.474C113.409 731.474 115.659 729.224 115.659 726.448C115.659 723.673 113.409 721.422 110.633 721.422C107.858 721.422 105.607 723.673 105.607 726.448C105.607 729.224 107.858 731.474 110.633 731.474ZM126.367 731.474C129.142 731.474 131.393 729.224 131.393 726.448C131.393 723.673 129.142 721.422 126.367 721.422C123.591 721.422 121.341 723.673 121.341 726.448C121.341 729.224 123.591 731.474 126.367 731.474ZM118.718 746.77C111.96 746.77 106.482 741.292 106.482 734.533H101.237C101.237 744.188 109.064 752.015 118.718 752.015C128.373 752.015 136.2 744.188 136.2 734.533H130.955C130.955 741.292 125.477 746.77 118.718 746.77Z" fill="#DC5B27" fill-opacity="0.1"/>
<path fill-rule="evenodd" clip-rule="evenodd" d="M781 365C780.87 329.146 751.819 300.12 716 300.12C751.898 300.12 781 270.965 781 235C781.129 270.854 810.181 299.88 846 299.88C810.101 299.88 781 329.035 781 365Z" fill="#CFAD36" fill-opacity="0.1"/>
<path fill-rule="evenodd" clip-rule="evenodd" d="M65 300C64.87 264.146 35.8186 235.12 0 235.12C35.8985 235.12 65 205.965 65 170C65.1294 205.854 94.1814 234.88 130 234.88C94.1009 234.88 65 264.035 65 300Z" fill="#CFAD36" fill-opacity="0.1"/>
<path fill-rule="evenodd" clip-rule="evenodd" d="M1538.71 538.179C1537.89 534.612 1536.65 531.105 1534.93 527.675C1528.9 515.634 1512.47 510.606 1496.45 512.04C1480.43 513.473 1465.15 521.343 1461.28 533.777C1459.07 540.886 1459.75 546.457 1462.2 550.749C1464.64 555.018 1468.91 558.074 1474.24 560.026C1489.08 565.46 1512.33 562.219 1522.03 556.525C1526.51 553.889 1530.82 550.95 1534.94 547.759C1535.41 562.737 1528.56 578.497 1518.15 593.611C1495.51 626.46 1455.83 656.234 1433.44 668.858C1432.24 669.536 1431.82 671.059 1432.5 672.262C1433.18 673.465 1434.7 673.892 1435.9 673.213C1458.73 660.339 1499.18 629.949 1522.26 596.449C1534.19 579.145 1541.43 560.997 1539.67 543.935C1569.59 518.598 1590.3 479.852 1608.1 447.165C1608.77 445.957 1608.32 444.435 1607.1 443.773C1605.89 443.117 1604.37 443.56 1603.71 444.774C1586.63 476.124 1566.98 513.274 1538.71 538.179ZM1534.36 541.857C1533.68 537.796 1532.41 533.799 1530.45 529.909C1525.24 519.487 1510.76 515.774 1496.89 517.016C1488.39 517.781 1480.06 520.452 1474.02 524.874C1470.22 527.653 1467.35 531.117 1466.06 535.265C1464.37 540.708 1464.67 544.986 1466.55 548.266C1468.43 551.571 1471.83 553.82 1475.96 555.326C1489.48 560.282 1510.67 557.396 1519.49 552.212C1524.7 549.155 1529.65 545.678 1534.36 541.857Z" fill="#FD3159" fill-opacity="0.1"/>
</svg>
