<svg width="727" height="743" viewBox="0 0 727 743" fill="none" xmlns="http://www.w3.org/2000/svg">
<g clip-path="url(#clip0_84_105)">
<path d="M661.225 273.32L703.371 228.545C705.091 226.718 706.014 224.283 705.938 221.775C705.862 219.267 704.793 216.892 702.966 215.173L647.859 163.301C646.032 161.581 643.596 160.658 641.089 160.733C638.581 160.809 636.206 161.878 634.486 163.705L589.098 211.925C587.379 213.751 586.455 216.187 586.531 218.695C586.607 221.202 587.676 223.577 589.503 225.297L644.61 277.169C646.437 278.889 648.873 279.812 651.38 279.736C653.888 279.66 656.263 278.591 657.983 276.764L661.225 273.32ZM622.121 197.538C627.461 191.865 636.501 191.585 642.18 196.931C647.856 202.274 648.13 211.32 642.79 216.993C637.451 222.666 628.404 222.939 622.728 217.596C617.049 212.25 616.782 203.21 622.121 197.538V197.538ZM644.865 257.921C637.222 250.727 638.135 234.015 648.818 222.666C659.5 211.318 676.126 209.396 683.769 216.59L686.352 219.021L647.448 260.352L644.865 257.921Z" fill="#DC5B27" fill-opacity="0.1"/>
</g>
<path fill-rule="evenodd" clip-rule="evenodd" d="M123.431 19.7667C135.526 30.6836 136.48 49.3374 125.563 61.4315C114.646 73.5256 95.9922 74.4799 83.8982 63.563C71.8041 52.6462 70.8498 33.9922 81.7667 21.8982C92.6835 9.80414 111.337 8.84991 123.431 19.7667ZM94.663 44.1367C96.5228 42.0764 96.3602 38.8982 94.2997 37.0383C92.2394 35.1785 89.0612 35.341 87.2014 37.4014C85.3414 39.4619 85.504 42.6401 87.5644 44.4999C89.6249 46.3599 92.8031 46.1973 94.663 44.1367ZM105.205 32.4579C107.065 30.3973 106.903 27.2192 104.842 25.3592C102.782 23.4994 99.6034 23.662 97.7435 25.7225C95.8837 27.7828 96.0463 30.961 98.1066 32.8208C100.167 34.6808 103.345 34.5182 105.205 32.4579ZM111.435 48.3844C106.907 53.4011 99.1686 53.797 94.1519 49.2686L90.6378 53.1616C97.8046 59.6308 108.859 59.0653 115.328 51.8986C121.797 44.7317 121.232 33.6774 114.065 27.2083L110.551 31.1014C115.568 35.6297 115.964 43.3676 111.435 48.3844Z" fill="#DC5B27" fill-opacity="0.1"/>
<path fill-rule="evenodd" clip-rule="evenodd" d="M65 725C64.87 689.146 35.8186 660.12 0 660.12C35.8985 660.12 65 630.965 65 595C65.1294 630.854 94.1814 659.88 130 659.88C94.1009 659.88 65 689.035 65 725Z" fill="#CFAD36" fill-opacity="0.1"/>
<path d="M376.814 18H514L456.186 113H319L376.814 18Z" fill="#4FB8F9" fill-opacity="0.1"/>
<path d="M320.818 651.92L417.675 596L415.581 686.638L318.724 742.559L320.818 651.92Z" fill="#4FB8F9" fill-opacity="0.1"/>
<defs>
<clipPath id="clip0_84_105">
<rect width="113.521" height="113.521" fill="white" transform="translate(566 222.662) rotate(-46.7325)"/>
</clipPath>
</defs>
</svg>
