<svg width="838" height="234" viewBox="0 0 838 234" fill="none" xmlns="http://www.w3.org/2000/svg">
<g clip-path="url(#clip0_146_15)">
<path d="M791.322 192.343L820.982 160.833C822.192 159.548 822.842 157.834 822.788 156.069C822.735 154.304 821.983 152.633 820.697 151.423L781.916 114.919C780.631 113.709 778.917 113.059 777.152 113.112C775.387 113.166 773.716 113.918 772.506 115.204L740.565 149.137C739.355 150.422 738.705 152.136 738.758 153.901C738.812 155.666 739.564 157.337 740.85 158.547L779.63 195.051C780.916 196.261 782.63 196.911 784.395 196.858C786.159 196.804 787.831 196.052 789.041 194.766L791.322 192.343ZM763.804 139.012C767.562 135.02 773.923 134.823 777.92 138.585C781.915 142.345 782.107 148.711 778.349 152.703C774.592 156.695 768.226 156.888 764.231 153.128C760.234 149.366 760.047 143.004 763.804 139.012V139.012ZM779.809 181.506C774.431 176.443 775.074 164.683 782.591 156.696C790.109 148.71 801.809 147.357 807.187 152.42L809.005 154.131L781.627 183.217L779.809 181.506Z" fill="#DC5B27" fill-opacity="0.1"/>
</g>
<path fill-rule="evenodd" clip-rule="evenodd" d="M412.862 13.9105C421.373 21.593 422.044 34.7202 414.362 43.2311C406.679 51.742 393.552 52.4136 385.041 44.7311C376.53 37.0487 375.859 23.9214 383.541 15.4105C391.224 6.89953 404.351 6.22802 412.862 13.9105ZM392.617 31.0603C393.926 29.6104 393.811 27.3738 392.361 26.0649C390.911 24.7561 388.675 24.8705 387.366 26.3205C386.057 27.7705 386.171 30.0071 387.621 31.3159C389.071 32.6248 391.308 32.5104 392.617 31.0603ZM400.035 22.8416C401.344 21.3915 401.23 19.155 399.78 17.846C398.33 16.5373 396.093 16.6517 394.785 18.1017C393.476 19.5516 393.59 21.7882 395.04 23.097C396.49 24.4059 398.727 24.2915 400.035 22.8416ZM404.42 34.0495C401.233 37.5799 395.787 37.8585 392.257 34.6718L389.784 37.4114C394.828 41.9639 402.607 41.566 407.159 36.5225C411.712 31.479 411.314 23.6998 406.27 19.1473L403.797 21.887C407.328 25.0737 407.606 30.519 404.42 34.0495Z" fill="#DC5B27" fill-opacity="0.1"/>
<path fill-rule="evenodd" clip-rule="evenodd" d="M45.5 221C45.409 195.902 25.073 175.584 0 175.584C25.1289 175.584 45.5 155.175 45.5 130C45.5906 155.098 65.927 175.416 91 175.416C65.8706 175.416 45.5 195.825 45.5 221Z" fill="#CFAD36" fill-opacity="0.1"/>
<path d="M590.915 13H688L647.085 80H550L590.915 13Z" fill="#4FB8F9" fill-opacity="0.1"/>
<path d="M225.769 169.774L293.929 130.421L292.456 194.206L224.295 233.558L225.769 169.774Z" fill="#4FB8F9" fill-opacity="0.1"/>
<defs>
<clipPath id="clip0_146_15">
<rect width="79.8878" height="79.8878" fill="white" transform="translate(724.31 156.693) rotate(-46.7325)"/>
</clipPath>
</defs>
</svg>
