<svg width="726" height="734" viewBox="0 0 726 734" fill="none" xmlns="http://www.w3.org/2000/svg">
<path fill-rule="evenodd" clip-rule="evenodd" d="M223.865 125.171C344.697 75.0567 483.109 103.145 570.688 200.16C652.769 291.085 654.295 426.943 591.068 531.939C535.057 624.953 420.441 641.866 312.673 628.627C168.113 610.87 153.828 597.538 128.543 454.195C101.489 300.821 79.8787 184.887 223.865 125.171Z" fill="#E2EBFD"/>
<path d="M212.278 266.416L289.74 221.694L288.065 294.183L210.603 338.905L212.278 266.416Z" fill="#4FB8F9" fill-opacity="0.1"/>
<path d="M309.104 119.411C308.659 118.379 308.113 117.375 307.461 116.41C301.861 108.116 290.651 105.897 282.423 111.453C277.389 114.852 274.638 120.374 274.543 126.049C270.475 125.606 266.245 126.541 262.6 129.002C254.451 134.505 252.283 145.57 257.683 153.839L257.681 153.84C248.539 160.013 246.172 172.488 252.395 181.703C258.617 190.918 271.072 193.385 280.214 187.212L328.927 154.319C338.069 148.147 340.436 135.672 334.213 126.457C328.587 118.124 317.865 115.31 309.104 119.411Z" fill="#7877FD" fill-opacity="0.1"/>
<path d="M288.831 509.764L347.035 518.609L310.273 564.592L288.831 509.764Z" fill="#7877FD" fill-opacity="0.1"/>
<path d="M503.967 460.179L562.171 469.024L525.409 515.007L503.967 460.179Z" fill="#7877FD" fill-opacity="0.1"/>
<path d="M429.647 137.276L425.728 154.262L440.672 163.237L423.307 164.76L419.388 181.745L412.574 165.7L395.209 167.222L408.363 155.784L401.549 139.739L416.493 148.715L429.647 137.276Z" fill="#EF918E" fill-opacity="0.1"/>
<path d="M623.19 286.032L619.271 303.017L634.215 311.993L616.85 313.515L612.931 330.501L606.117 314.456L588.752 315.978L601.906 304.539L595.092 288.494L610.036 297.47L623.19 286.032Z" fill="#EF918E" fill-opacity="0.1"/>
<g clip-path="url(#clip0_126_9)">
<path d="M246.777 436.946L238.182 440.64C236.951 439.735 235.597 439.012 234.161 438.492C233.573 435.428 232.987 432.363 232.402 429.298C232.241 428.46 231.09 428.346 230.773 429.141L227.314 437.811C225.782 438.038 224.291 438.49 222.891 439.153C220.277 437.379 217.664 435.605 215.045 433.825C214.351 433.353 213.455 434.088 213.787 434.862C215.038 437.769 216.282 440.671 217.532 443.578C216.634 444.806 215.917 446.157 215.403 447.589C212.318 448.181 209.228 448.768 206.143 449.36C205.306 449.52 205.192 450.672 205.988 450.989L214.738 454.479C214.972 455.997 215.425 457.473 216.084 458.861L210.85 466.567C210.379 467.261 211.113 468.159 211.887 467.826L220.443 464.148C221.704 465.074 223.095 465.81 224.57 466.332C225.151 469.378 225.733 472.424 226.316 475.47C226.476 476.309 227.627 476.424 227.945 475.629C229.093 472.749 230.242 469.868 231.392 466.988C232.912 466.756 234.389 466.305 235.779 465.647C238.348 467.394 240.916 469.137 243.484 470.88C244.18 471.353 245.076 470.617 244.742 469.843C243.519 466.997 242.297 464.148 241.072 461.302C241.996 460.053 242.731 458.674 243.255 457.212L252.325 455.477C252.425 455.478 252.523 455.458 252.614 455.418C252.706 455.378 252.788 455.32 252.855 455.247C253.005 455.107 253.086 454.919 253.107 454.722C253.136 454.511 253.095 454.293 252.964 454.114C252.911 454.029 252.84 453.956 252.757 453.9C252.674 453.844 252.581 453.805 252.482 453.787C249.627 452.647 246.768 451.508 243.912 450.367C243.675 448.838 243.217 447.351 242.553 445.952C244.305 443.371 246.061 440.787 247.814 438.206C248.287 437.511 247.551 436.613 246.777 436.945" fill="#FBB041" fill-opacity="0.1"/>
<path d="M237.731 462.825C243.471 458.097 244.291 449.612 239.563 443.872C234.835 438.133 226.349 437.313 220.61 442.041C214.871 446.769 214.051 455.254 218.778 460.994C223.506 466.733 231.992 467.553 237.731 462.825Z" fill="#F9EC21" fill-opacity="0.1"/>
</g>
<defs>
<clipPath id="clip0_126_9">
<rect width="48.1371" height="48.1371" fill="white" transform="translate(195.628 449.041) rotate(-39.4803)"/>
</clipPath>
</defs>
</svg>
