<svg width="787" height="818" viewBox="0 0 787 818" fill="none" xmlns="http://www.w3.org/2000/svg">
<path fill-rule="evenodd" clip-rule="evenodd" d="M89.9061 72.8385C257.719 3.23989 449.947 42.2491 571.577 176.985C685.571 303.262 687.691 491.943 599.881 637.763C522.092 766.941 362.913 790.43 213.243 772.044C12.4771 747.382 -7.36157 728.867 -42.4779 529.79C-80.0511 316.784 -110.064 155.774 89.9061 72.8385Z" fill="#E2EBFD"/>
<path d="M77.8181 335.92L174.675 280L172.581 370.638L75.7242 426.559L77.8181 335.92Z" fill="#4FB8F9" fill-opacity="0.1"/>
<path d="M198.888 152.108C198.332 150.819 197.648 149.563 196.833 148.356C189.831 137.986 175.815 135.211 165.527 142.157C159.232 146.408 155.792 153.313 155.674 160.408C150.587 159.855 145.297 161.024 140.74 164.101C130.551 170.981 127.84 184.817 134.592 195.156L134.59 195.158C123.159 202.876 120.199 218.474 127.98 229.997C135.76 241.519 151.334 244.603 162.765 236.885L223.674 195.757C235.105 188.039 238.064 172.441 230.284 160.918C223.249 150.5 209.842 146.981 198.888 152.108Z" fill="#7877FD" fill-opacity="0.1"/>
<path d="M173.539 640.196L246.315 651.255L200.349 708.752L173.539 640.196Z" fill="#7877FD" fill-opacity="0.1"/>
<path d="M524.539 612.196L597.315 623.255L551.349 680.752L524.539 612.196Z" fill="#7877FD" fill-opacity="0.1"/>
<path d="M364.612 72.4469L359.712 93.6854L378.397 104.908L356.684 106.811L351.785 128.05L343.265 107.988L321.552 109.891L337.999 95.5886L329.48 75.5264L348.165 86.7493L364.612 72.4469Z" fill="#EF918E" fill-opacity="0.1"/>
<path d="M591.612 360.447L586.712 381.685L605.397 392.908L583.684 394.811L578.785 416.05L570.265 395.988L548.552 397.891L564.999 383.589L556.48 363.526L575.165 374.749L591.612 360.447Z" fill="#EF918E" fill-opacity="0.1"/>
<g clip-path="url(#clip0_84_104)">
<path d="M120.956 549.146L110.209 553.765C108.67 552.634 106.977 551.73 105.181 551.08C104.446 547.249 103.713 543.416 102.981 539.584C102.781 538.536 101.341 538.393 100.944 539.388L96.6205 550.229C94.7043 550.512 92.8406 551.077 91.0901 551.906C87.8217 549.688 84.5539 547.47 81.2794 545.245C80.4118 544.654 79.2916 545.572 79.7057 546.541C81.27 550.175 82.8261 553.804 84.3889 557.439C83.2657 558.974 82.369 560.663 81.7263 562.454C77.8692 563.194 74.0055 563.928 70.1485 564.668C69.1023 564.869 68.9597 566.309 69.9543 566.706L80.8957 571.069C81.1878 572.967 81.7543 574.813 82.5776 576.548L76.0338 586.184C75.4448 587.052 76.3625 588.175 77.3301 587.758L88.0285 583.16C89.6056 584.317 91.344 585.237 93.1884 585.89C93.916 589.699 94.643 593.507 95.3726 597.316C95.5718 598.365 97.0118 598.508 97.4091 597.514C98.8448 593.913 100.281 590.311 101.719 586.711C103.619 586.421 105.467 585.856 107.204 585.033C110.416 587.218 113.628 589.397 116.838 591.576C117.709 592.168 118.829 591.248 118.412 590.28C116.882 586.721 115.355 583.159 113.823 579.601C114.978 578.038 115.897 576.315 116.552 574.486L127.893 572.318C128.017 572.318 128.141 572.293 128.255 572.243C128.369 572.194 128.471 572.121 128.556 572.029C128.743 571.855 128.844 571.619 128.871 571.373C128.907 571.11 128.855 570.837 128.692 570.613C128.625 570.507 128.537 570.416 128.433 570.345C128.33 570.275 128.213 570.227 128.089 570.204C124.52 568.779 120.945 567.354 117.373 565.928C117.077 564.016 116.505 562.156 115.675 560.408C117.865 557.18 120.06 553.949 122.253 550.722C122.844 549.853 121.924 548.73 120.957 549.146" fill="#FBB041" fill-opacity="0.1"/>
<path d="M109.644 581.505C116.821 575.594 117.846 564.984 111.934 557.807C106.023 550.631 95.4127 549.606 88.2363 555.517C81.0598 561.429 80.0345 572.039 85.9462 579.215C91.8578 586.392 102.468 587.417 109.644 581.505Z" fill="#F9EC21" fill-opacity="0.1"/>
</g>
<defs>
<clipPath id="clip0_84_104">
<rect width="60.1893" height="60.1893" fill="white" transform="translate(57 564.269) rotate(-39.4803)"/>
</clipPath>
</defs>
</svg>
