<svg width="251" height="53" viewBox="0 0 251 53" fill="none" xmlns="http://www.w3.org/2000/svg">
<path fill-rule="evenodd" clip-rule="evenodd" d="M0.576172 26.3923C0.576172 40.9234 13.4378 52.784 29.1955 52.784C44.9532 52.784 57.8154 40.9234 57.8154 26.3923C57.8154 11.8611 44.9532 0 29.1955 0C13.4378 0 0.576172 11.8611 0.576172 26.3923ZM8.75334 26.3923C8.75334 15.9363 17.857 7.54073 29.1955 7.54073C40.534 7.54073 49.6382 15.9363 49.6382 26.3923C49.6382 36.8482 40.534 45.2433 29.1955 45.2433C17.857 45.2433 8.75334 36.8482 8.75334 26.3923Z" fill="#5F6C7B"/>
<path d="M13.5088 30.2344V36.3043H23.5271C23.7375 33.1346 24.7987 31.7479 27.6414 30.2344H13.5088ZM30.8545 30.2344C28.2142 30.2344 24.728 33.177 24.728 36.3043V52.2647H33.4367V38.2063C33.4367 36.0409 36.9457 36.3043 36.9457 36.3043H44.6334V30.2344H30.8545Z" fill="#5F6C7B"/>
<path d="M13.5088 25.7333C13.5088 25.7333 24.8828 10.5158 25.2301 9.32031C25.5935 8.0697 25.2301 3.55013 25.2301 0.665039H33.1612L32.8666 8.35211C32.5999 10.9015 31.8618 12.6278 29.5737 15.9128L22.1813 25.7333H13.5088ZM36.1894 25.7333L30.2431 17.3697C31.1346 16.2353 32.5104 13.9027 33.2827 11.6596L44.6445 25.7608L36.1894 25.7333Z" fill="#5F6C7B"/>
<path d="M13.4336 26.4595V29.4245H44.7493V26.4595H13.4336Z" fill="#5F6C7B"/>
<path d="M23.7939 25.7454L34.8658 25.7729L29.6275 18.1978L23.7939 25.7454Z" fill="#5F6C7B"/>
<path d="M78.5706 22.1925H73.6642V34.9576H69.9389V22.1925H65.0098V18.9448H78.5706V22.1925ZM82.8886 18.9448L86.364 26.0265L89.8848 18.9448H93.9507L88.2039 29.4997V34.9576H84.5013V29.4546L78.8453 18.9448H82.8886Z" fill="#F37494"/>
<path d="M100.754 34.9575V18.9447H106.773C108.545 18.9447 110.022 19.3056 111.203 20.0273C112.399 20.734 113.3 21.6962 113.906 22.9141C114.512 24.1169 114.815 25.455 114.815 26.9285C114.815 28.5524 114.481 29.9657 113.815 31.1685C113.149 32.3714 112.21 33.3035 110.998 33.9651C109.802 34.6267 108.394 34.9575 106.773 34.9575H100.754ZM111.021 26.9285C111.021 25.9963 110.854 25.1769 110.521 24.4702C110.188 23.7485 109.704 23.1923 109.068 22.8013C108.432 22.3953 107.667 22.1924 106.773 22.1924H104.479V31.7098H106.773C107.682 31.7098 108.447 31.5068 109.068 31.1009C109.704 30.6799 110.188 30.1085 110.521 29.3868C110.854 28.6501 111.021 27.8307 111.021 26.9285ZM128.348 31.7098V34.9575H117.014V18.9447H128.144V22.1924H120.739V25.3047H127.099V28.3043H120.739V31.7098H128.348ZM132.952 18.9447L136.745 30.6273L140.493 18.9447H144.423L138.562 34.9575H134.905L128.999 18.9447H132.952ZM157.252 31.7098V34.9575H145.917V18.9447H157.048V22.1924H149.643V25.3047H156.003V28.3043H149.643V31.7098H157.252ZM159.516 34.9575V18.9447H163.241V31.7098H171.055V34.9575H159.516ZM179.579 35.0928C178.367 35.0928 177.27 34.8673 176.285 34.4162C175.316 33.9501 174.476 33.3336 173.764 32.5668C173.067 31.785 172.529 30.9129 172.151 29.9507C171.773 28.9733 171.583 27.966 171.583 26.9285C171.583 25.861 171.779 24.8461 172.174 23.8839C172.582 22.9216 173.142 22.0646 173.854 21.3128C174.581 20.546 175.437 19.9446 176.421 19.5085C177.406 19.0725 178.48 18.8545 179.647 18.8545C180.843 18.8545 181.926 19.0876 182.895 19.5536C183.88 20.0047 184.72 20.6212 185.416 21.403C186.128 22.1848 186.674 23.0644 187.052 24.0417C187.43 25.004 187.62 25.9889 187.62 26.9962C187.62 28.0638 187.423 29.0786 187.029 30.0409C186.635 31.0031 186.075 31.8677 185.348 32.6345C184.621 33.3863 183.766 33.9877 182.781 34.4388C181.813 34.8748 180.745 35.0928 179.579 35.0928ZM175.376 26.9736C175.376 27.5901 175.467 28.1915 175.649 28.7779C175.831 29.3493 176.095 29.8605 176.444 30.3115C176.807 30.7626 177.254 31.1234 177.784 31.3941C178.314 31.6647 178.92 31.8 179.601 31.8C180.313 31.8 180.934 31.6647 181.464 31.3941C181.994 31.1084 182.433 30.7325 182.781 30.2664C183.13 29.8003 183.387 29.2816 183.554 28.7102C183.735 28.1239 183.826 27.5299 183.826 26.9285C183.826 26.312 183.735 25.7182 183.554 25.1468C183.372 24.5754 183.099 24.0643 182.736 23.6132C182.373 23.1472 181.926 22.7863 181.396 22.5307C180.865 22.275 180.268 22.1473 179.601 22.1473C178.889 22.1473 178.269 22.2826 177.739 22.5532C177.224 22.8239 176.785 23.1923 176.421 23.6583C176.073 24.1094 175.808 24.6281 175.626 25.2145C175.459 25.7859 175.376 26.3723 175.376 26.9736ZM189.772 34.9575V18.9447H196.655C197.427 18.9447 198.131 19.1026 198.767 19.4183C199.419 19.7191 199.979 20.1325 200.448 20.6587C200.918 21.1699 201.282 21.7489 201.538 22.3953C201.796 23.0418 201.924 23.7034 201.924 24.38C201.924 25.2972 201.705 26.1693 201.266 26.9962C200.842 27.8231 200.243 28.4997 199.471 29.026C198.715 29.5372 197.813 29.7928 196.768 29.7928H193.497V34.9575H189.772ZM193.497 26.5677H196.541C196.829 26.5677 197.094 26.485 197.336 26.3196C197.579 26.1542 197.776 25.9061 197.927 25.5753C198.079 25.2446 198.154 24.8386 198.154 24.3575C198.154 23.8613 198.063 23.4553 197.881 23.1396C197.715 22.8089 197.495 22.5682 197.222 22.4179C196.966 22.2676 196.693 22.1924 196.405 22.1924H193.497V26.5677ZM203.924 34.9575V18.9447H210.807C211.579 18.9447 212.284 19.1026 212.92 19.4183C213.571 19.7191 214.131 20.1325 214.6 20.6587C215.071 21.1699 215.434 21.7489 215.691 22.3953C215.949 23.0418 216.077 23.7034 216.077 24.38C216.077 25.2972 215.858 26.1693 215.418 26.9962C214.995 27.8231 214.396 28.4997 213.624 29.026C212.867 29.5372 211.966 29.7928 210.921 29.7928H207.65V34.9575H203.924ZM207.65 26.5677H210.693C210.982 26.5677 211.247 26.485 211.489 26.3196C211.732 26.1542 211.928 25.9061 212.079 25.5753C212.231 25.2446 212.306 24.8386 212.306 24.3575C212.306 23.8613 212.215 23.4553 212.034 23.1396C211.868 22.8089 211.648 22.5682 211.375 22.4179C211.118 22.2676 210.846 22.1924 210.557 22.1924H207.65V26.5677ZM229.412 31.7098V34.9575H218.077V18.9447H229.207V22.1924H221.802V25.3047H228.162V28.3043H221.802V31.7098H229.412ZM231.675 34.9575V18.9447H238.944C239.702 18.9447 240.398 19.1026 241.034 19.4183C241.685 19.7191 242.246 20.1325 242.715 20.6587C243.184 21.1699 243.547 21.7489 243.805 22.3953C244.078 23.0418 244.214 23.6959 244.214 24.3575C244.214 25.0191 244.108 25.6506 243.896 26.2519C243.684 26.8383 243.381 27.372 242.987 27.8532C242.593 28.3193 242.124 28.7027 241.579 29.0034L245.123 34.9575H241.011L237.922 29.7928H235.401V34.9575H231.675ZM235.401 26.5677H238.808C239.111 26.5677 239.376 26.4775 239.603 26.297C239.845 26.1016 240.042 25.8384 240.193 25.5077C240.344 25.1769 240.421 24.7935 240.421 24.3575C240.421 23.9214 240.33 23.5456 240.148 23.2298C239.981 22.8991 239.77 22.6434 239.512 22.463C239.254 22.2826 238.982 22.1924 238.694 22.1924H235.401V26.5677Z" fill="#5F6C7B"/>
</svg>
